<svg width="25" height="25" viewBox="0 0 25 25" fill="none" xmlns="http://www.w3.org/2000/svg">
<path d="M12.0569 2.24512C9.86961 2.2477 7.77269 3.11772 6.22607 4.66434C4.67946 6.21095 3.80944 8.30787 3.80686 10.4951C3.80424 12.2825 4.38809 14.0215 5.46886 15.4451C5.46886 15.4451 5.69386 15.7414 5.73061 15.7841L12.0569 23.2451L18.3861 15.7804C18.4191 15.7406 18.6449 15.4451 18.6449 15.4451L18.6456 15.4429C19.7258 14.0198 20.3094 12.2817 20.3069 10.4951C20.3043 8.30787 19.4343 6.21095 17.8876 4.66434C16.341 3.11772 14.2441 2.2477 12.0569 2.24512ZM12.0569 13.4951C11.4635 13.4951 10.8835 13.3192 10.3901 12.9895C9.8968 12.6599 9.51228 12.1913 9.28522 11.6432C9.05815 11.095 8.99874 10.4918 9.1145 9.90985C9.23026 9.3279 9.51598 8.79335 9.93553 8.3738C10.3551 7.95424 10.8896 7.66852 11.4716 7.55276C12.0535 7.43701 12.6567 7.49642 13.2049 7.72348C13.7531 7.95054 14.2216 8.33506 14.5513 8.82841C14.8809 9.32175 15.0569 9.90177 15.0569 10.4951C15.0559 11.2905 14.7395 12.0529 14.1771 12.6153C13.6147 13.1777 12.8522 13.4941 12.0569 13.4951Z" fill="white"/>
</svg>
