<svg width="25" height="25" viewBox="0 0 25 25" fill="none" xmlns="http://www.w3.org/2000/svg">
<path d="M20.0569 11.7441H22.0569C22.0569 6.61412 18.1839 2.74512 13.0469 2.74512V4.74512C17.1089 4.74512 20.0569 7.68812 20.0569 11.7441Z" fill="#1F7628"/>
<path d="M13.0569 8.74536C15.1599 8.74536 16.0569 9.64236 16.0569 11.7454H18.0569C18.0569 8.52036 16.2819 6.74536 13.0569 6.74536V8.74536ZM16.4789 14.1884C16.2867 14.0137 16.0342 13.9206 15.7747 13.9286C15.5151 13.9366 15.2689 14.0452 15.0879 14.2314L12.6949 16.6924C12.1189 16.5824 10.9609 16.2214 9.76885 15.0324C8.57685 13.8394 8.21585 12.6784 8.10885 12.1064L10.5679 9.71236C10.7543 9.53148 10.863 9.28518 10.871 9.02556C10.879 8.76595 10.7857 8.5134 10.6109 8.32136L6.91585 4.25836C6.7409 4.06571 6.49773 3.94886 6.23801 3.93262C5.97828 3.91637 5.72245 4.00201 5.52485 4.17136L3.35485 6.03236C3.18197 6.20587 3.07877 6.43681 3.06485 6.68136C3.04985 6.93136 2.76385 12.8534 7.35585 17.4474C11.3619 21.4524 16.3799 21.7454 17.7619 21.7454C17.9639 21.7454 18.0879 21.7394 18.1209 21.7374C18.3654 21.7237 18.5962 21.62 18.7689 21.4464L20.6289 19.2754C20.7983 19.0779 20.8841 18.8221 20.8681 18.5624C20.852 18.3027 20.7354 18.0595 20.5429 17.8844L16.4789 14.1884Z" fill="#1F7628"/>
</svg>
